<svg height="983.03998" viewBox="0 0 983.03998 983.03998" width="983.03998" xmlns="http://www.w3.org/2000/svg" xmlns:xlink="http://www.w3.org/1999/xlink"><clipPath id="a"><path d="m0 737.28h737.28v-737.28h-737.28z"/></clipPath><g transform="matrix(1.3333333 0 0 -1.3333333 0 983.04)"><path d="m0 0h737.28v737.28h-737.28z" fill="#48773d"/><path d="m728.64 7.29h-722.652v722.7h722.652z" fill="#48773d"/><g clip-path="url(#a)" fill="#fff"><path d="m0 0c-2.395.655-12.423 14.516-4.495 23.639 1.317 1.499-2.661 5.912-1.573 5.999 4.337.336 6.644-2.354 7.782-6.234.087-1.708.154-3.434.154-5.176 0-6.247-.653-12.341-1.868-18.228m-24.461-45.083c-.895.25-1.812.54-2.806 1.035-4.873 2.481-4.29-1.483-6.685-.609-2.412.894 2.703 6.456-4.498 1.752-7.167-4.691-5.233.725-8.361 8.672-3.16 7.954 3.599 17.029 9.242 19.083 7.757 2.809 12.574 3.38 16.212 4.278 10.728 2.68 12.996 9.046 14.942 5.171.368-.725.723-1.415 1.046-2.064.625-1.158 1.345-3.503 1.38-5.817-4.554-11.938-11.581-22.654-20.472-31.501m-62.981-25.996c-8.727 0-17.14 1.271-25.1 3.596-1.145.933-1.798 2.493-1.082 4.364 2.764 7.206 10.991 10.026 17.487 10.651 14.482 1.411 33.514-9.4 36.54-7.655 3.038 1.741 9.158 9.702 18.14 9.369 6.131-.236 6.086-1.265 8.144-2.041-15.019-11.458-33.77-18.284-54.129-18.284m-12.143 58.206c-1.229-2.011-4.586-17.029-6.84-15.28-2.265 1.752.913 17.418 1.566 18.609 3.525 6.47 11.156 6.15 5.274-3.329m36.47 17.731c-1.763-1.57-6.278-.995-8.536.767-2.244 1.746 1.425 4.644 2.767 4.751 3.006.269 7.518-3.927 5.769-5.518m39.413-.154c-.962.36-1.812 1.271-2.543 3.463-.726 2.194 1.117 3.444 2.918 2.562 1.833-.93 4.211-3.664 4.211-5.125 0-1.462-3.603-1.287-4.586-.9m3.796-2.744c3.002.242 7.51-3.918 5.748-5.515-1.756-1.584-6.257-1.003-8.515.764-2.247 1.748 1.418 4.64 2.767 4.751m-95.797-35.61c-1.734-6.827-3.761-9.288-5.488-11.441-1.724-2.178-8.119-4.956-12.174-4.658-4.063.305-4.628 11.144-4.628 16.716 0 1.927-2.725-3.783-4.147 7.819-.91 7.428-5.678-.774-6.012 4.18-.34 4.943-2.721 3.958-5.228 7.048-2.49 3.087-5.598-.302-9.081-1.863-3.463-1.54-2.037-2.351-6.963-.801-.127.041-.19.078-.313.122-4.519 10.683-7.016 22.429-7.016 34.756 0 3.017.162 5.98.443 8.912.168.299.344.585.551.831 4.723 5.588 4.617 6.896 4.617 6.896l5.226 1.81s8.343-1.285 14.628-3.652c5.176-1.942 13.33-6.333 18.071-4.399 3.427 1.413 6.109 3.286 5.786 6.141-.386 3.58-3.206 4.432-6.619 2.017-1.26-.888-3.943 5.397-6.047 5.078-2.103-.313 2.602-7.385.819-7.685-1.791-.305-5.387 7.372-6.002 8.615-.604 1.235-3.381 4.316-5.874 1.965-5.267-5.004-13.821-4.698-15.539-5.985-5.228-3.912-6.608 1.287-6.492 4.454.21.723.425 1.454.656 2.17 1.707 1.882 7.835 2.505 9.938 1.103 2.31-1.543 3.968.397 4.871 1.334.915.915.593 2.398.017 3.629-.586 1.242 1.155 2.149 2.349 2.469 1.204.319 5.183 3.104 6.77 4.034 1.605.922 9.861 1.925 13.562.074 3.697-1.863 7.092-.342 8.912 1.8 2.282 2.707 5.186 4.772 6.475 5.397 1.295.605-3.185 4.788-6.869.228-3.694-4.536-5.573-4.956-7.307-4.956-1.735 0-12.044 2.572-13.316 5.83-1.257 3.252 3.224 5.691 7.03 7.536 3.803 1.814 14.215 1.789 16.877 2.391 5.411 1.187 12.328 3.905 15.812 1.533 3.469-2.33-14.552-6.435-8.628-9.633 2.107-1.158 11.633 5.481 14.899 7.179 7.68 3.96-7.448 5.269-5.485 13.32 2.219 9.102-18.554 5.582-28.909 4.807 13.887 8.898 30.381 14.074 48.089 14.074 42.13 0 77.42-29.185 86.831-68.431.063-1.94-.239-3.339-.436-4.133-.807-3.218-6.913-5.985-10.456-.804-.903 1.306-4.734 4.923-4.604-1.264.123-6.191 6.015-6.823.306-10.538-5.703-3.713-6.749-2.818-9.386-3.753-2.631-.931-5.184-7.31-4.555-10.718.639-3.409 8.778-12.716 2.739-12.334-1.415.105-12.087 7.392-13.849 12.08-1.858 4.933-3.887 9.762-5.327 13.484-1.458 3.706-5.222 4.654-8.414 2.472-3.174-2.176.889-4.346-1.397-8.998-2.276-4.644-3.912-8.792-7.265-4.955-8.716 9.989-21.382 5.062-23.369 16.176-1.071 6.025-6.261 5.448-10.598 8.861-4.361 3.392-6.787 5.239-7.521 2.781-.646-2.157 13.649-13.489 14.667-16.393 1.517-4.312-4.28-8.119-8.526-9.141-4.224-1.013-6.089 2.381-10.249 6.716-4.158 4.324-5.981 7.421-6.269 4.02-.417-4.912 3.951-12.128 8.189-14.825 3.613-2.289 7.662-3.325 6.493-7.039-1.176-3.725-.021-1.617-4.07-5.621-4.056-4.027-4.828-5.32-4.533-10.879.291-5.578-1.159-5.897-2.03-10.533-.867-4.637-2.879-.624-4.632-7.426m-47.973 98.419c.203.242.386.44.464.54 1.612 1.837 4.821 2.23 7.04 2.576 2.223.381 5.186-.739 5.544-2.216.38-1.469-5.572-4.166-6.66-5.175-3.084-2.841-7.912-8.628-10.735-9.251-.924-.207-1.682-.067-2.307.242 1.857 4.628 4.076 9.081 6.654 13.284m4.579 9.105c1.155 1.696 4.993 6.538 5.46 7.15.987 1.271 2.946 1.53 4.322 1.774 1.36.264 3.175-.503 3.393-1.526.235-1.025-.527-4.993-1.198-5.675-1.879-1.951-6.773-4.706-9.47-4.272-2.086.319-2.904 1.934-2.507 2.549m283.891-52.77c-15.244 21.383-84.202 106.755-212.384 106.755-128.203 0-197.14-85.372-212.408-106.755-.65-.915-1.208-1.705-1.664-2.377.456-.69 1.014-1.477 1.664-2.402 15.268-21.373 84.205-106.748 212.408-106.748 128.182 0 197.14 85.375 212.384 106.748.667.925 1.215 1.712 1.654 2.402-.439.672-.987 1.462-1.654 2.377" transform="translate(460.3002 173.2217)"/><path d="m0 0v-145.649h-24.494v111.49h-.214l-17.179-17.827h-.223v25.564l22.555 26.422z" transform="translate(84.1779 669.3677)"/><path d="m0 0v-12.669c0-12.24-6.658-20.402-16.753-23.634 12.24-2.79 18.042-11.381 18.042-24.7v-21.485c0-20.191-10.735-33.296-35.444-33.296-24.923 0-33.738 14.179-33.738 36.305v19.12h22.353v-20.844c0-8.591 3-14.17 11.385-14.17 7.508 0 10.942 5.364 10.942 13.104v24.056c0 7.74-3.434 11.814-12.021 11.814h-10.306v18.691h9.24c7.943 0 13.087 4.088 13.087 11.815v15.683c0 7.951-2.781 13.104-10.512 13.104-7.728 0-10.526-5.153-10.526-14.178v-14.819h-22.353v12.884c0 21.485 8.815 36.524 34.159 36.524 22.564 0 32.445-12.679 32.445-33.305" transform="translate(164.9473 637.7826)"/><path d="m0 0h-.27l-6.965-39.79h-4.792l-7.687 39.79h-.181v-39.79h-8.501v61.313h12.028l6.694-34.542h.089l5.969 34.542h13.023v-61.313h-9.407z" transform="translate(226.2691 643.6195)"/><path d="m0 0h24.599v-8.409h-14.289v-17.541h10.218v-8.326h-10.218v-18.629h14.289v-8.408h-24.599z" transform="translate(239.8512 665.1427)"/><path d="m0 0v8.23h9.588v-8.414c0-3.435 1.536-5.426 5.063-5.426 3.256 0 4.703 2.176 4.703 5.426v2.353c0 3.53-1.447 5.699-4.611 8.682l-6.061 6.061c-5.877 5.788-8.59 9.312-8.59 16.365v2.08c0 7.6 4.43 13.478 14.47 13.478 10.31 0 14.378-5.064 14.378-13.93v-4.974h-9.405v5.337c0 3.53-1.628 5.247-4.884 5.247-2.894 0-4.882-1.628-4.882-5.063v-1.265c0-3.441 1.899-5.432 4.882-8.32l6.602-6.513c5.606-5.698 8.319-9.133 8.319-15.919v-2.983c0-8.408-4.522-14.381-15.01-14.381-10.491 0-14.562 5.877-14.562 13.929" transform="translate(267.2641 617.033)"/><path d="m0 0v-46.392c0-9.496-4.07-15.646-14.562-15.646-10.851 0-15.373 6.15-15.373 15.646v46.392h10.31v-47.384c0-3.619 1.448-6.062 5.063-6.062 3.619 0 5.066 2.443 5.066 6.062v47.384z" transform="translate(330.4981 665.1427)"/><path d="m0 0v-19.08h3.434c3.53 0 5.067 1.806 5.067 5.062v9.045c0 3.345-1.537 4.973-5.067 4.973zm0-24.779v-28.125h-10.31v61.313h15.014c10.398 0 14.196-5.153 14.196-13.745v-7.868c0-6.602-2.351-10.487-8.231-11.849l9.859-27.851h-10.851z" transform="translate(344.9836 656.7339)"/><path d="m0 0h24.598v-8.409h-14.288v-17.541h10.218v-8.326h-10.218v-18.629h14.288v-8.408h-24.598z" transform="translate(367.7853 665.1427)"/><path d="m0 0v8.23h9.588v-8.414c0-3.435 1.536-5.426 5.063-5.426 3.256 0 4.703 2.176 4.703 5.426v2.353c0 3.53-1.447 5.699-4.611 8.682l-6.061 6.061c-5.877 5.788-8.59 9.312-8.59 16.365v2.08c0 7.6 4.43 13.478 14.47 13.478 10.31 0 14.377-5.064 14.377-13.93v-4.974h-9.403v5.337c0 3.53-1.629 5.247-4.885 5.247-2.894 0-4.882-1.628-4.882-5.063v-1.265c0-3.441 1.899-5.432 4.882-8.32l6.601-6.513c5.607-5.698 8.32-9.133 8.32-15.919v-2.983c0-8.408-4.519-14.381-15.01-14.381s-14.562 5.877-14.562 13.929" transform="translate(395.1982 617.033)"/><path d="m0 0v-19.08h3.435c3.527 0 5.066 1.806 5.066 5.062v9.045c0 3.345-1.539 4.973-5.066 4.973zm0-24.779v-28.125h-10.31v61.313h15.014c10.399 0 14.196-5.153 14.196-13.745v-7.868c0-6.602-2.351-10.487-8.231-11.849l9.859-27.851h-10.851z" transform="translate(455.3643 656.7339)"/><path d="m0 0h24.599v-8.409h-14.289v-17.541h10.218v-8.326h-10.218v-18.629h14.289v-8.408h-24.599z" transform="translate(478.166 665.1427)"/><path d="m0 0h10.31v-52.905h12.298v-8.408h-22.608z" transform="translate(506.5741 665.1427)"/><path d="m0 0h8.227l-4.067 24.601h-.093zm-12.933-19.444 11.575 61.314h11.757l11.665-61.314h-10.58l-1.899 11.214h-10.943l-1.809-11.214z" transform="translate(543.4829 623.2731)"/><path d="m0 0h27.403v-8.409h-8.5v-52.904h-10.402v52.904h-8.501z" transform="translate(562.3984 665.1427)"/><path d="m592.887 665.143h10.31v-61.313h-10.31z"/><path d="m0 0-11.669-61.313h-11.212l-11.665 61.313h10.488l7.053-42.773h.093l7.234 42.773z" transform="translate(640.4617 665.1427)"/><path d="m0 0h24.598v-8.409h-14.288v-17.541h10.217v-8.326h-10.217v-18.629h14.288v-8.408h-24.598z" transform="translate(643.0057 665.1427)"/><path d="m0 0v8.23h9.588v-8.414c0-3.435 1.536-5.426 5.063-5.426 3.256 0 4.703 2.176 4.703 5.426v2.353c0 3.53-1.447 5.699-4.611 8.682l-6.061 6.061c-5.878 5.788-8.59 9.312-8.59 16.365v2.08c0 7.6 4.43 13.478 14.47 13.478 10.31 0 14.377-5.064 14.377-13.93v-4.974h-9.403v5.337c0 3.53-1.629 5.247-4.885 5.247-2.894 0-4.882-1.628-4.882-5.063v-1.265c0-3.441 1.899-5.432 4.882-8.32l6.601-6.513c5.607-5.698 8.32-9.133 8.32-15.919v-2.983c0-8.408-4.522-14.381-15.01-14.381-10.491 0-14.562 5.877-14.562 13.929" transform="translate(670.4186 617.033)"/><path d="m0 0h8.227l-4.067 24.601h-.093zm-3.708 53.357 16.187-3.435v-5.788l-16.187 2.08zm-9.225-72.801 11.575 61.314h11.757l11.665-61.314h-10.58l-1.899 11.214h-10.943l-1.809-11.214z" transform="translate(209.1786 541.8484)"/><path d="m0 0h10.31v-52.904h12.298v-8.409h-22.608z" transform="translate(247.5687 583.7181)"/><path d="m0 0h8.227l-4.068 24.601h-.092zm-12.934-19.444 11.576 61.314h11.756l11.666-61.314h-10.581l-1.899 11.214h-10.942l-1.81-11.214z" transform="translate(284.4807 541.8484)"/><path d="m0 0h10.31v-52.904h12.298v-8.409h-22.608z" transform="translate(322.8701 583.7181)"/><path d="m0 0v-46.392c0-9.495-4.07-15.646-14.562-15.646-10.851 0-15.373 6.151-15.373 15.646v46.392h10.31v-47.384c0-3.619 1.448-6.061 5.063-6.061 3.619 0 5.066 2.442 5.066 6.061v47.384z" transform="translate(377.5051 583.7181)"/><path d="m0 0h27.403v-8.408h-8.5v-52.905h-10.402v52.905h-8.501z" transform="translate(380.5037 583.7181)"/><path d="m0 0h27.403v-8.408h-8.501v-52.905h-10.401v52.905h-8.501z" transform="translate(409.8184 583.7181)"/><path d="m0 0h24.598v-8.408h-14.288v-17.542h10.217v-8.326h-10.217v-18.628h14.288v-8.409h-24.598z" transform="translate(440.3067 583.7181)"/><path d="m0 0v29.664c0 9.586 4.522 16.55 15.373 16.55 11.394 0 14.562-6.328 14.562-15.373v-7.237h-9.407v8.051c0 3.798-1.266 5.966-4.974 5.966s-5.244-2.62-5.244-6.328v-32.921c0-3.708 1.536-6.328 5.244-6.328s4.974 2.353 4.974 5.966v11.308h9.407v-10.584c0-8.77-3.62-15.283-14.562-15.283-10.851 0-15.373 7.053-15.373 16.549" transform="translate(482.4932 538.2292)"/><path d="m0 0v32.921c0 3.708-1.628 6.329-5.336 6.329-3.616 0-5.244-2.621-5.244-6.329v-32.921c0-3.708 1.628-6.328 5.244-6.328 3.708 0 5.336 2.62 5.336 6.328m-20.89 1.628v29.665c0 9.585 4.703 16.549 15.554 16.549 10.943 0 15.646-6.964 15.646-16.549v-29.665c0-9.496-4.703-16.549-15.646-16.549-10.851 0-15.554 7.053-15.554 16.549" transform="translate(537.22 536.601)"/><path d="m0 0v-38.525h-8.682v61.314h10.128l11.125-35.179v35.179h8.589v-61.314h-9.041z" transform="translate(560.3911 560.9293)"/><path d="m0 0h27.403v-8.408h-8.5v-52.905h-10.402v52.905h-8.501z" transform="translate(584.5501 583.7181)"/><path d="m0 0v-19.081h3.434c3.527 0 5.067 1.806 5.067 5.063v9.044c0 3.346-1.54 4.974-5.067 4.974zm0-24.78v-28.125h-10.31v61.313h15.014c10.398 0 14.195-5.151 14.195-13.744v-7.868c0-6.602-2.35-10.488-8.23-11.849l9.858-27.852h-10.85z" transform="translate(625.3484 575.3099)"/><path d="m0 0h24.598v-8.408h-14.288v-17.542h10.217v-8.326h-10.217v-18.628h14.288v-8.409h-24.598z" transform="translate(648.1535 583.7181)"/><path d="m0 0h10.31v-52.905h12.298v-8.408h-22.608z" transform="translate(197.8734 502.2876)"/><path d="m0 0h24.599v-8.408h-14.288v-17.542h10.217v-8.326h-10.217v-18.629h14.288v-8.408h-24.599z" transform="translate(223.4764 502.2876)"/><path d="m0 0v8.23h9.588v-8.408c0-3.441 1.536-5.432 5.063-5.432 3.256 0 4.704 2.175 4.704 5.432v2.347c0 3.53-1.448 5.699-4.612 8.682l-6.061 6.06c-5.877 5.788-8.59 9.312-8.59 16.365v2.081c0 7.6 4.431 13.477 14.47 13.477 10.31 0 14.378-5.062 14.378-13.929v-4.974h-9.404v5.337c0 3.53-1.629 5.247-4.885 5.247-2.894 0-4.882-1.628-4.882-5.063v-1.266c0-3.44 1.899-5.425 4.882-8.325l6.602-6.507c5.607-5.699 8.32-9.133 8.32-15.92v-2.983c0-8.408-4.52-14.38-15.011-14.38s-14.562 5.876-14.562 13.929" transform="translate(250.8893 454.1785)"/><path d="m0 0v29.664c0 9.585 4.522 16.55 15.372 16.55 11.395 0 14.563-6.329 14.563-15.373v-7.238h-9.408v8.052c0 3.797-1.265 5.966-4.974 5.966-3.707 0-5.243-2.621-5.243-6.328v-32.921c0-3.708 1.536-6.329 5.243-6.329 3.709 0 4.974 2.354 4.974 5.966v11.309h9.408v-10.584c0-8.77-3.62-15.283-14.563-15.283-10.85 0-15.372 7.053-15.372 16.549" transform="translate(297.9677 456.7987)"/><path d="m0 0h-9.947v-27.038h-10.31v61.314h10.31v-25.95h9.947v25.95h10.399v-61.314h-10.399z" transform="translate(352.0614 468.012)"/><path d="m0 0h8.226l-4.067 24.601h-.092zm-12.934-19.444 11.576 61.314h11.756l11.666-61.314h-10.581l-1.899 11.214h-10.942l-1.81-11.214z" transform="translate(377.9419 460.4179)"/><path d="m0 0v-38.525h-8.682v61.314h10.129l11.124-35.179v35.179h8.589v-61.314h-9.041z" transform="translate(411.2347 479.4988)"/><path d="m0 0h14.651v-32.737h-7.416v6.692c-1.355-4.611-4.249-7.416-9.858-7.416-8.861 0-12.931 7.053-12.931 16.549v29.664c0 9.585 4.611 16.55 15.465 16.55 11.394 0 14.74-6.329 14.74-15.373v-5.426h-9.404v6.24c0 3.797-1.447 5.966-5.155 5.966s-5.336-2.621-5.336-6.328v-32.921c0-3.708 1.536-6.329 5.063-6.329 3.345 0 5.066 1.902 5.066 5.877v10.857h-4.885z" transform="translate(452.128 473.7108)"/><path d="m0 0h24.599v-8.408h-14.289v-17.542h10.218v-8.326h-10.218v-18.629h14.289v-8.408h-24.599z" transform="translate(470.9543 502.2876)"/><path d="m0 0h-.27l-6.965-39.79h-4.792l-7.687 39.79h-.181v-39.79h-8.501v61.313h12.028l6.691-34.542h.092l5.969 34.542h13.023v-61.313h-9.407z" transform="translate(527.7581 480.7643)"/><path d="m0 0h24.599v-8.408h-14.289v-17.542h10.218v-8.326h-10.218v-18.629h14.289v-8.408h-24.599z" transform="translate(541.3402 502.2876)"/><path d="m0 0v-38.525h-8.682v61.314h10.129l11.124-35.179v35.179h8.589v-61.314h-9.041z" transform="translate(578.4306 479.4988)"/><path d="m0 0h27.403v-8.408h-8.5v-52.905h-10.402v52.905h-8.501z" transform="translate(602.593 502.2876)"/><path d="m0 0v8.23h9.588v-8.408c0-3.441 1.536-5.432 5.063-5.432 3.256 0 4.703 2.175 4.703 5.432v2.347c0 3.53-1.447 5.699-4.611 8.682l-6.061 6.06c-5.877 5.788-8.59 9.312-8.59 16.365v2.081c0 7.6 4.43 13.477 14.47 13.477 10.31 0 14.378-5.062 14.378-13.929v-4.974h-9.405v5.337c0 3.53-1.628 5.247-4.884 5.247-2.894 0-4.882-1.628-4.882-5.063v-1.266c0-3.44 1.899-5.425 4.882-8.325l6.602-6.507c5.606-5.699 8.319-9.133 8.319-15.92v-2.983c0-8.408-4.522-14.38-15.01-14.38-10.491 0-14.562 5.876-14.562 13.929" transform="translate(631.6341 454.1785)"/><path d="m0 0v29.664c0 9.585 4.522 16.55 15.372 16.55 11.396 0 14.563-6.329 14.563-15.373v-7.238h-9.407v8.052c0 3.797-1.266 5.966-4.974 5.966s-5.244-2.62-5.244-6.328v-32.921c0-3.709 1.536-6.329 5.244-6.329s4.974 2.353 4.974 5.966v11.308h9.407v-10.583c0-8.77-3.62-15.283-14.563-15.283-10.85 0-15.372 7.053-15.372 16.549" transform="translate(197.8734 375.3682)"/><path d="m0 0h10.31v-52.905h12.298v-8.408h-22.608z" transform="translate(231.71 420.8564)"/><path d="m257.314 420.856h10.31v-61.313h-10.31z"/><path d="m0 0h-.27l-6.965-39.79h-4.792l-7.686 39.79h-.181v-39.79h-8.501v61.313h12.027l6.694-34.543h.089l5.97 34.543h13.022v-61.313h-9.407z" transform="translate(300.2769 399.3338)"/><path d="m0 0h8.227l-4.067 24.602h-.093zm-12.933-19.443 11.575 61.313h11.757l11.665-61.313h-10.58l-1.899 11.213h-10.943l-1.809-11.213z" transform="translate(325.1647 378.9868)"/><path d="m0 0h27.404v-8.408h-8.501v-52.905h-10.402v52.905h-8.501z" transform="translate(344.077 420.8564)"/><path d="m374.565 420.856h10.31v-61.313h-10.31z"/><path d="m0 0v33.461c0 3.708-1.628 6.328-5.336 6.328-3.616 0-5.244-2.62-5.244-6.328v-33.461c0-3.619 1.628-6.329 5.244-6.329 3.708 0 5.336 2.71 5.336 6.329m-9.133-17.815v4.159c-8.23 1.444-11.757 7.505-11.757 15.825v29.664c0 9.585 4.703 16.55 15.554 16.55 10.943 0 15.646-6.965 15.646-16.55v-29.664c0-6.692-2.35-11.938-7.597-14.47l7.597-1.444v-7.689z" transform="translate(410.0204 373.1994)"/><path d="m0 0v-46.392c0-9.495-4.071-15.646-14.562-15.646-10.85 0-15.373 6.151-15.373 15.646v46.392h10.311v-47.384c0-3.619 1.446-6.061 5.062-6.061 3.62 0 5.066 2.442 5.066 6.061v47.384z" transform="translate(454.4437 420.8564)"/><path d="m0 0h24.598v-8.408h-14.288v-17.541h10.217v-8.326h-10.217v-18.63h14.288v-8.408h-24.598z" transform="translate(458.6198 420.8564)"/><path d="m0 0v8.23h9.588v-8.414c0-3.435 1.536-5.426 5.063-5.426 3.256 0 4.704 2.176 4.704 5.426v2.353c0 3.53-1.448 5.699-4.612 8.681l-6.061 6.062c-5.877 5.788-8.59 9.312-8.59 16.365v2.08c0 7.6 4.431 13.478 14.47 13.478 10.31 0 14.377-5.064 14.377-13.93v-4.974h-9.403v5.337c0 3.53-1.629 5.247-4.885 5.247-2.894 0-4.882-1.628-4.882-5.063v-1.265c0-3.441 1.899-5.432 4.882-8.32l6.602-6.513c5.607-5.698 8.32-9.133 8.32-15.919v-2.983c0-8.408-4.523-14.381-15.011-14.381-10.491 0-14.562 5.877-14.562 13.929" transform="translate(486.0321 372.7474)"/></g></g></svg>