<svg height="983.03998" viewBox="0 0 983.03998 983.03998" width="983.03998" xmlns="http://www.w3.org/2000/svg" xmlns:xlink="http://www.w3.org/1999/xlink"><clipPath id="a"><path d="m0 737.28h737.28v-737.28h-737.28z"/></clipPath><g transform="matrix(1.3333333 0 0 -1.3333333 0 983.04)"><path d="m0 0h737.28v737.28h-737.28z" fill="#40ae49"/><path d="m729.977 7.288h-722.673v722.705h722.673z" fill="#40ae49"/><g clip-path="url(#a)" fill="#fff"><path d="m0 0c.881 0 1.592-.717 1.592-1.598v-52.623c0-.895-.711-1.601-1.592-1.601h-21.297c-.885 0-1.6.706-1.6 1.601v52.623c0 .881.715 1.598 1.6 1.598z" transform="translate(311.3463 241.3572)"/><path d="m0 0h-350.934c-.877 0-1.606-.755-1.606-1.649v-21.45c0-.872.729-1.579 1.606-1.579h350.934c.864 0 1.609.707 1.609 1.579v21.45c0 .894-.745 1.649-1.609 1.649" transform="translate(545.2074 162.9409)"/><path d="m0 0h-350.934c-.877 0-1.606-.706-1.606-1.579v-21.515c0-.86.729-1.584 1.606-1.584h350.934c.864 0 1.609.724 1.609 1.584v21.515c0 .873-.745 1.579-1.609 1.579" transform="translate(545.2074 120.3085)"/><path d="m0 0c-4.386 3.43-16.087 11.437-30.357 11.437-10.201 0-19.692-4.019-28.182-11.974-.601-.571-.938-1.36-.938-2.202v-1.912c0-.941.311-1.82.999-2.399.764-.577 1.562-.794 2.474-.577.202.029.452.092.658.169.649.226 1.258.616 1.754 1.112 1.841 1.237 6.868 2.925 14.056 2.925 7.433 0 22.042-1.991 36.159-15.155l.324-.289c.794-.818 1.89-1.27 3.053-1.27 1.105 0 2.249.461 2.969 1.242l.285.293c14.196 13.188 28.778 15.179 36.212 15.179 7.24 0 12.244-1.688 14.09-2.925.505-.496 1.123-.895 1.939-1.189.311-.092 1.206-.273 2.057-.063 1.298.366 2.21 1.534 2.21 2.892v1.693c0 .802-.347 1.611-.943 2.171-8.569 8.168-18.16 12.297-28.523 12.297-14.14 0-25.788-7.883-30.296-11.455" transform="translate(478.4284 299.6088)"/><path d="m0 0c-.746-.346-1.286-1.028-1.531-1.849l-.355-1.17c-.263-.921-.097-1.893.46-2.636.544-.713 1.316-1.142 2.171-1.182.162-.02.32-.059.438-.02.611.02 1.158.151 1.698.435.311.063.96.236 2.127.236 1.57 0 15.718-.475 25.072-16.375l.118-.226c.51-.921 1.303-1.555 2.246-1.799.272-.088.794-.173 1.118-.173.649 0 1.303.173 1.768.438l.232.113c5.118 2.558 10.421 3.872 15.656 3.872 8.864 0 14.653-3.616 16.004-5.122.276-.512.697-.956 1.175-1.309.298-.172.824-.437 1.14-.549.158-.04.342-.061.518-.074.096-.02.21-.02.316-.02.477 0 .938.118 1.39.349.719.361 1.259 1.017 1.491 1.798l.294 1.035c.088.263.123.55.123.853 0 .548-.141 1.079-.408 1.506-6.816 11.835-16.705 14.308-23.805 14.308-5.285 0-9.908-1.37-12.631-2.37-3.214 4.324-11.341 13.262-23.668 13.262-4.334 0-8.75-1.114-13.157-3.331" transform="translate(456.6498 439.4759)"/><path d="m0 0 .101-1.579c.048-.986.565-1.84 1.403-2.363.693-.437 1.579-.588 2.359-.358.172.039.365.103.514.16.605.248 1.118.633 1.517 1.121 1.491 1.076 6.297 3.039 13.385 3.039 6.815 0 17.182-1.82 27.747-10.497l.246-.252c.754-.652 1.719-1.02 2.706-1.02h.259c1.105.086 2.127.594 2.754 1.324l.237.266c11.696 12.378 24.295 14.218 30.765 14.218 4.608 0 7.876-.952 9.148-1.671.482-.416 1.078-.745 1.824-.947.21-.05.728-.143 1.285-.084.228.024.513.103.737.176 1.254.439 2.078 1.662 1.991 3.017l-.079 1.372c-.052.819-.434 1.553-1.057 2.088-6.981 5.872-14.516 8.833-22.445 8.833-12.345 0-22.192-7.289-26.27-10.863-3.733 2.541-12.789 7.771-23.415 7.771-9.337 0-17.708-3.879-24.897-11.505-.566-.603-.85-1.424-.815-2.246" transform="translate(382.4982 385.485)"/><path d="m0 0c0 21.015 17.038 38.045 38.045 38.045.824 0 1.627-.073 2.439-.118 2.004 26.593 24.164 47.568 51.275 47.568 28.433 0 51.483-23.044 51.483-51.476 0-8.054-1.908-15.644-5.206-22.433 25.765-5.707 45.049-28.651 45.049-56.121 0-31.77-25.757-57.527-57.525-57.527-2.321 0-76.77.448-76.77.448-22.503.005-40.738 18.231-40.738 40.731 0 10.808 4.237 20.595 11.104 27.888-11.433 6.563-19.156 18.863-19.156 32.995" transform="translate(204.9082 357.3121)"/><path d="m0 0v-25.572h.21l17.192 17.836h.219v-111.539h24.498v145.715h-19.56z" transform="translate(58.4865 643.059)"/><path d="m0 0c-9.666 0-16.753-3.43-20.63-10.096h-.219v36.322h42.128v19.981h-64.468v-82.103h22.34v3.237c0 8.586 3.868 13.319 10.745 13.319 7.526 0 10.542-5.162 10.542-13.113v-35.248c0-7.727-2.798-13.104-10.323-13.104-8.377 0-11.376 5.588-11.376 14.184v18.266h-22.367v-16.556c0-22.13 8.815-36.313 33.743-36.313 24.717 0 34.813 13.113 34.813 33.313v35.677c0 22.998-11.815 32.234-24.928 32.234" transform="translate(158.8461 623.2845)"/><path d="m0 0-11.668-61.313h-11.213l-11.668 61.313h10.491l7.054-42.773h.092l7.235 42.773z" transform="translate(276.8109 669.145)"/><path d="m281.076 669.145h10.31v-61.313h-10.31z"/><path d="m0 0h24.598v-8.409h-14.288v-17.541h10.217v-8.326h-10.217v-18.629h14.288v-8.408h-24.598z" transform="translate(297.3611 669.145)"/><path d="m0 0h27.403v-8.408h-8.501v-52.905h-10.402v52.905h-8.5z" transform="translate(242.6246 583.1919)"/><path d="m0 0h24.598v-8.408h-14.288v-17.542h10.218v-8.326h-10.218v-18.629h14.288v-8.408h-24.598z" transform="translate(274.8329 583.1919)"/><path d="m0 0v-19.081h3.434c3.53 0 5.066 1.806 5.066 5.063v9.044c0 3.346-1.536 4.974-5.066 4.974zm0-24.78v-28.125h-10.31v61.313h15.013c10.399 0 14.196-5.151 14.196-13.745v-7.867c0-6.602-2.35-10.488-8.23-11.849l9.858-27.852h-10.85z" transform="translate(315.2717 574.7837)"/><path d="m0 0v-19.081h3.435c3.527 0 5.066 1.806 5.066 5.063v9.044c0 3.346-1.539 4.974-5.066 4.974zm0-24.78v-28.125h-10.31v61.313h15.014c10.399 0 14.196-5.151 14.196-13.745v-7.867c0-6.602-2.351-10.488-8.23-11.849l9.858-27.852h-10.85z" transform="translate(350.1035 574.7837)"/><path d="m0 0h24.599v-8.408h-14.288v-17.542h10.217v-8.326h-10.217v-18.629h14.288v-8.408h-24.599z" transform="translate(374.6253 583.1919)"/><path d="m0 0v8.23h9.588v-8.414c0-3.435 1.536-5.426 5.063-5.426 3.256 0 4.703 2.175 4.703 5.426v2.353c0 3.53-1.447 5.699-4.611 8.682l-6.061 6.061c-5.877 5.788-8.59 9.311-8.59 16.365v2.08c0 7.6 4.43 13.477 14.47 13.477 10.31 0 14.378-5.063 14.378-13.929v-4.974h-9.404v5.337c0 3.529-1.629 5.247-4.885 5.247-2.894 0-4.882-1.628-4.882-5.063v-1.266c0-3.44 1.899-5.431 4.882-8.319l6.602-6.513c5.606-5.698 8.319-9.133 8.319-15.92v-2.983c0-8.408-4.522-14.38-15.01-14.38-10.491 0-14.562 5.876-14.562 13.929" transform="translate(403.7589 535.0829)"/><path d="m0 0h27.403v-8.408h-8.501v-52.905h-10.401v52.905h-8.501z" transform="translate(436.2409 583.1919)"/><path d="m0 0v-19.081h3.435c3.53 0 5.066 1.806 5.066 5.063v9.044c0 3.346-1.536 4.974-5.066 4.974zm0-24.78v-28.125h-10.31v61.313h15.014c10.399 0 14.196-5.151 14.196-13.745v-7.867c0-6.602-2.351-10.488-8.231-11.849l9.859-27.852h-10.851z" transform="translate(478.756 574.7837)"/><path d="m0 0h24.598v-8.408h-14.288v-17.542h10.217v-8.326h-10.217v-18.629h14.288v-8.408h-24.598z" transform="translate(503.2817 583.1919)"/></g></g></svg>